<svg width="20" height="21" viewBox="0 0 20 21" fill="none" xmlns="http://www.w3.org/2000/svg">
<path fill-rule="evenodd" clip-rule="evenodd" d="M10 0.75C4.61522 0.75 0.25 5.11522 0.25 10.5C0.25 15.8848 4.61522 20.25 10 20.25C15.3848 20.25 19.75 15.8848 19.75 10.5C19.7443 5.11758 15.3824 0.755684 10 0.75V0.75ZM10 18.75C5.44365 18.75 1.75 15.0563 1.75 10.5C1.75 5.94365 5.44365 2.25 10 2.25C14.5563 2.25 18.25 5.94365 18.25 10.5C18.2448 15.0542 14.5542 18.7448 10 18.75V18.75ZM14.5 10.5C14.5 10.9142 14.1642 11.25 13.75 11.25H10.75V14.25C10.75 14.6642 10.4142 15 10 15C9.58579 15 9.25 14.6642 9.25 14.25V11.25H6.25C5.83579 11.25 5.5 10.9142 5.5 10.5C5.5 10.0858 5.83579 9.75 6.25 9.75H9.25V6.75C9.25 6.33579 9.58579 6 10 6C10.4142 6 10.75 6.33579 10.75 6.75V9.75H13.75C14.1642 9.75 14.5 10.0858 14.5 10.5V10.5Z" fill="#0D1C12"/>
</svg>
