<svg width="20" height="18" viewBox="0 0 20 18" fill="none" xmlns="http://www.w3.org/2000/svg">
<path fill-rule="evenodd" clip-rule="evenodd" d="M18.25 0H1.75C0.921573 0 0.25 0.671573 0.25 1.5V16.5C0.246467 17.0843 0.585871 17.6163 1.11719 17.8594C1.3154 17.9517 1.53135 17.9997 1.75 18C2.10213 17.9992 2.44258 17.8736 2.71094 17.6456C2.71541 17.6427 2.7195 17.6392 2.72312 17.6353L5.73438 15H18.25C19.0784 15 19.75 14.3284 19.75 13.5V1.5C19.75 0.671573 19.0784 0 18.25 0V0ZM1.75 16.5V16.5V16.5ZM18.25 13.5H5.73438C5.38115 13.4998 5.03919 13.6243 4.76875 13.8516L4.7575 13.8619L1.75 16.5V1.5H18.25V13.5Z" fill="#0D1C12"/>
</svg>
