<svg width="18" height="17" viewBox="0 0 18 17" fill="none" xmlns="http://www.w3.org/2000/svg">
<path fill-rule="evenodd" clip-rule="evenodd" d="M9.9375 12.5625C9.9375 13.0803 9.51777 13.5 9 13.5C8.48223 13.5 8.0625 13.0803 8.0625 12.5625C8.0625 12.0447 8.48223 11.625 9 11.625C9.51777 11.625 9.9375 12.0447 9.9375 12.5625V12.5625ZM9 4.125C7.27656 4.125 5.875 5.38672 5.875 6.9375V7.25C5.875 7.59518 6.15482 7.875 6.5 7.875C6.84518 7.875 7.125 7.59518 7.125 7.25V6.9375C7.125 6.07812 7.96641 5.375 9 5.375C10.0336 5.375 10.875 6.07812 10.875 6.9375C10.875 7.79688 10.0336 8.5 9 8.5C8.65482 8.5 8.375 8.77982 8.375 9.125V9.75C8.375 10.0952 8.65482 10.375 9 10.375C9.34518 10.375 9.625 10.0952 9.625 9.75V9.69375C11.05 9.43203 12.125 8.29531 12.125 6.9375C12.125 5.38672 10.7234 4.125 9 4.125V4.125ZM17.125 8.5C17.125 12.9873 13.4873 16.625 9 16.625C4.51269 16.625 0.875 12.9873 0.875 8.5C0.875 4.01269 4.51269 0.375 9 0.375C13.4854 0.379737 17.1203 4.01465 17.125 8.5V8.5ZM15.875 8.5C15.875 4.70304 12.797 1.625 9 1.625C5.20304 1.625 2.125 4.70304 2.125 8.5C2.125 12.297 5.20304 15.375 9 15.375C12.7952 15.3707 15.8707 12.2952 15.875 8.5V8.5Z" fill="#0D1C12"/>
</svg>
