<svg width="20" height="19" viewBox="0 0 20 19" fill="none" xmlns="http://www.w3.org/2000/svg">
<path fill-rule="evenodd" clip-rule="evenodd" d="M19.4163 6.87562L10.4163 0.875625C10.1642 0.707475 9.83578 0.707475 9.58375 0.875625L0.58375 6.87562C0.375087 7.01484 0.249837 7.24916 0.25 7.5V17.25C0.25 18.0784 0.921573 18.75 1.75 18.75H18.25C19.0784 18.75 19.75 18.0784 19.75 17.25V7.5C19.7502 7.24916 19.6249 7.01484 19.4163 6.87562V6.87562ZM7.0675 12.75L1.75 16.5V8.95594L7.0675 12.75ZM8.60219 13.5H11.3978L16.7069 17.25H3.29313L8.60219 13.5ZM12.9325 12.75L18.25 8.95594V16.5L12.9325 12.75ZM10 2.40094L17.6791 7.52063L11.3978 12H8.60406L2.32281 7.52063L10 2.40094Z" fill="#0D1C12"/>
</svg>
